<svg width="161" height="164" viewBox="0 0 161 164" fill="none" xmlns="http://www.w3.org/2000/svg">
<g id="bar icon">
<g id="Vector" filter="url(#filter0_d_113_795)">
<path d="M92.05 19.0924C91.3858 16.5126 91.8287 13.7604 93.2812 11.4413C94.7336 9.12223 97.0767 7.42627 99.7949 6.7265L113.46 3.2085C116.179 2.50873 119.049 2.86247 121.441 4.19191C123.833 5.52135 125.55 7.71757 126.214 10.2975L151.256 107.572C151.92 110.152 151.477 112.904 150.025 115.223C148.572 117.542 146.229 119.238 143.511 119.938L129.845 123.456C127.127 124.156 124.256 123.802 121.864 122.472C119.473 121.143 117.756 118.947 117.092 116.367L92.05 19.0924ZM57.6537 69.4357C56.9895 66.8558 57.4324 64.1036 58.8849 61.7846C60.3373 59.4655 62.6804 57.7695 65.3987 57.0698L79.0642 53.5518C81.7825 52.852 84.6532 53.2057 87.0449 54.5352C89.4366 55.8646 91.1534 58.0608 91.8176 60.6407L106.843 119.005C107.507 121.585 107.064 124.337 105.611 126.657C104.159 128.976 101.816 130.672 99.0977 131.371L85.4321 134.889C82.7139 135.589 79.8432 135.235 77.4514 133.906C75.0597 132.576 73.343 130.38 72.6788 127.8L57.6537 69.4357ZM31.0024 107.413C28.2841 108.113 25.941 109.809 24.4886 112.128C23.0361 114.447 22.5933 117.199 23.2574 119.779L28.2658 139.234C28.9299 141.814 30.6467 144.01 33.0384 145.339C35.4301 146.669 38.3009 147.023 41.0191 146.323L54.6847 142.805C57.4029 142.105 59.746 140.409 61.1985 138.09C62.6509 135.771 63.0938 133.019 62.4296 130.439L57.4213 110.984C56.7571 108.404 55.0403 106.208 52.6486 104.878C50.2569 103.549 47.3862 103.195 44.6679 103.895L31.0024 107.413Z" fill="url(#paint0_linear_113_795)"/>
<path d="M92.4337 10.9105C90.8401 13.4549 90.3469 16.4882 91.0815 19.3417L116.123 116.616C116.858 119.47 118.755 121.888 121.379 123.346C124.001 124.804 127.135 125.186 130.094 124.424L143.76 120.906C146.719 120.144 149.28 118.296 150.872 115.754C152.466 113.209 152.959 110.176 152.224 107.323L127.182 10.0481C126.448 7.19461 124.551 4.77647 121.927 3.31786C119.305 1.86045 116.17 1.47827 113.211 2.24008L99.5456 5.75807C96.5864 6.51988 94.0259 8.36818 92.4337 10.9105ZM58.0374 61.2537C56.4438 63.7981 55.9507 66.8315 56.6853 69.685L71.7104 128.05C72.445 130.903 74.3415 133.321 76.9656 134.78C79.5876 136.237 82.7222 136.62 85.6815 135.858L99.347 132.34C102.306 131.578 104.867 129.73 106.459 127.187C108.053 124.643 108.546 121.61 107.811 118.756L92.786 60.3914C92.0514 57.5379 90.1549 55.1197 87.5308 53.6611C84.9088 52.2037 81.7741 51.8215 78.8149 52.5833L65.1494 56.1013C62.1901 56.8631 59.6297 58.7114 58.0374 61.2537ZM30.7531 106.445C27.7938 107.206 25.2334 109.055 23.6411 111.597C22.0475 114.141 21.5544 117.175 22.289 120.028L27.2973 139.483C28.0319 142.337 29.9285 144.755 32.5526 146.213C35.1745 147.671 38.3092 148.053 41.2684 147.291L54.934 143.773C57.8932 143.011 60.4537 141.163 62.046 138.621C63.6395 136.076 64.1327 133.043 63.3981 130.19L58.3897 110.735C57.6551 107.881 55.7586 105.463 53.1345 104.004C50.5125 102.547 47.3779 102.165 44.4186 102.927L30.7531 106.445Z" stroke="white" stroke-width="2"/>
</g>
<g id="mask">
<mask id="mask0_113_795" style="mask-type:alpha" maskUnits="userSpaceOnUse" x="22" y="2" width="130" height="145">
<path id="mask_2" d="M92.05 19.0924C91.3858 16.5126 91.8287 13.7604 93.2812 11.4413C94.7336 9.12223 97.0767 7.42627 99.7949 6.7265L113.46 3.2085C116.179 2.50873 119.049 2.86247 121.441 4.19191C123.833 5.52135 125.55 7.71757 126.214 10.2975L151.256 107.572C151.92 110.152 151.477 112.904 150.025 115.223C148.572 117.542 146.229 119.238 143.511 119.938L129.845 123.456C127.127 124.156 124.256 123.802 121.864 122.472C119.473 121.143 117.756 118.947 117.092 116.367L92.05 19.0924ZM57.6537 69.4357C56.9895 66.8558 57.4324 64.1036 58.8849 61.7846C60.3373 59.4655 62.6804 57.7695 65.3987 57.0698L79.0642 53.5518C81.7825 52.852 84.6532 53.2057 87.0449 54.5352C89.4366 55.8646 91.1534 58.0608 91.8176 60.6407L106.843 119.005C107.507 121.585 107.064 124.337 105.611 126.657C104.159 128.976 101.816 130.672 99.0977 131.371L85.4321 134.889C82.7139 135.589 79.8432 135.235 77.4514 133.906C75.0597 132.576 73.343 130.38 72.6788 127.8L57.6537 69.4357ZM31.0024 107.413C28.2841 108.113 25.941 109.809 24.4886 112.128C23.0361 114.447 22.5933 117.199 23.2574 119.779L28.2658 139.234C28.9299 141.814 30.6467 144.01 33.0384 145.339C35.4301 146.669 38.3009 147.023 41.0191 146.323L54.6847 142.805C57.4029 142.105 59.746 140.409 61.1985 138.09C62.6509 135.771 63.0938 133.019 62.4296 130.439L57.4213 110.984C56.7571 108.404 55.0403 106.208 52.6486 104.878C50.2569 103.549 47.3862 103.195 44.6679 103.895L31.0024 107.413Z" fill="white"/>
</mask>
<g mask="url(#mask0_113_795)">
<g id="shine-1" opacity="0.6" filter="url(#filter1_f_113_795)">
<ellipse cx="93.3021" cy="137.16" rx="63.5" ry="13.939" transform="rotate(-14.4365 93.3021 137.16)" fill="#86F5A3"/>
</g>
<g id="shine-2" filter="url(#filter2_f_113_795)">
<ellipse cx="94.8466" cy="143.159" rx="63.5" ry="2.32317" transform="rotate(-14.4365 94.8466 143.159)" fill="#AEF1BF"/>
</g>
<g id="shine-3" filter="url(#filter3_f_113_795)">
<ellipse cx="94.9428" cy="143.534" rx="63.5" ry="1.16159" transform="rotate(-14.4365 94.9428 143.534)" fill="#A4FFB8"/>
</g>
</g>
</g>
</g>
<defs>
<filter id="filter0_d_113_795" x="13.8561" y="0.856934" width="146.802" height="162.917" filterUnits="userSpaceOnUse" color-interpolation-filters="sRGB">
<feFlood flood-opacity="0" result="BackgroundImageFix"/>
<feColorMatrix in="SourceAlpha" type="matrix" values="0 0 0 0 0 0 0 0 0 0 0 0 0 0 0 0 0 0 127 0" result="hardAlpha"/>
<feOffset dy="8"/>
<feGaussianBlur stdDeviation="3.55"/>
<feComposite in2="hardAlpha" operator="out"/>
<feColorMatrix type="matrix" values="0 0 0 0 0 0 0 0 0 0 0 0 0 0 0 0 0 0 0.55 0"/>
<feBlend mode="normal" in2="BackgroundImageFix" result="effect1_dropShadow_113_795"/>
<feBlend mode="normal" in="SourceGraphic" in2="effect1_dropShadow_113_795" result="shape"/>
</filter>
<filter id="filter1_f_113_795" x="-13.293" y="71.3545" width="213.189" height="131.61" filterUnits="userSpaceOnUse" color-interpolation-filters="sRGB">
<feFlood flood-opacity="0" result="BackgroundImageFix"/>
<feBlend mode="normal" in="SourceGraphic" in2="BackgroundImageFix" result="shape"/>
<feGaussianBlur stdDeviation="22.5" result="effect1_foregroundBlur_113_795"/>
</filter>
<filter id="filter2_f_113_795" x="21.3486" y="115.167" width="146.996" height="55.9844" filterUnits="userSpaceOnUse" color-interpolation-filters="sRGB">
<feFlood flood-opacity="0" result="BackgroundImageFix"/>
<feBlend mode="normal" in="SourceGraphic" in2="BackgroundImageFix" result="shape"/>
<feGaussianBlur stdDeviation="6" result="effect1_foregroundBlur_113_795"/>
</filter>
<filter id="filter3_f_113_795" x="27.4473" y="121.662" width="134.991" height="43.7432" filterUnits="userSpaceOnUse" color-interpolation-filters="sRGB">
<feFlood flood-opacity="0" result="BackgroundImageFix"/>
<feBlend mode="normal" in="SourceGraphic" in2="BackgroundImageFix" result="shape"/>
<feGaussianBlur stdDeviation="3" result="effect1_foregroundBlur_113_795"/>
</filter>
<linearGradient id="paint0_linear_113_795" x1="62.2147" y1="16.401" x2="92.2649" y2="133.13" gradientUnits="userSpaceOnUse">
<stop offset="0.451681" stop-color="white"/>
<stop offset="1" stop-color="#A3A3A3"/>
</linearGradient>
</defs>
</svg>
