<svg width="131" height="106" viewBox="0 0 131 106" fill="none" xmlns="http://www.w3.org/2000/svg">
<g id="mail-icon">
<path id="Vector" d="M129.359 14.9791C129.363 11.2545 128.025 8.03915 125.373 5.38692C122.72 2.73473 119.503 1.39453 115.775 1.39453L15.1087 1.39453L15.1075 1.39453C11.3843 1.39905 8.17016 2.73906 5.51839 5.38632C2.86565 8.03455 1.52539 11.2498 1.52539 14.9779L1.52539 90.4779L1.52539 90.4791L115.775 103.061L115.774 104.061C119.506 104.066 122.724 102.728 125.373 100.074C128.021 97.4222 129.359 94.2053 129.359 90.4779V14.9791ZM129.359 14.9791L128.359 14.9779H129.359V14.9791ZM65.4421 56.9185L65.434 56.9185C65.0192 56.9219 64.5623 56.8601 64.0591 56.7216L63.7936 57.6857L64.0591 56.7216C63.5722 56.5875 63.1068 56.3884 62.6612 56.1219L18.1557 28.2863L18.1135 28.2599L18.069 28.2379C17.408 27.9107 16.9371 27.4535 16.6208 26.8588C16.2906 26.2381 16.1087 25.486 16.1087 24.5727C16.1087 22.9531 16.8014 21.7189 18.3089 20.786C19.0618 20.3201 19.7813 20.1175 20.4823 20.1271C21.1855 20.1368 21.9414 20.3612 22.7619 20.8617L64.9109 47.2835L65.4421 47.6164L65.9732 47.2835L108.118 20.8645C108.119 20.8635 108.121 20.8626 108.122 20.8617C108.946 20.3592 109.707 20.1266 110.417 20.1064C111.123 20.0862 111.844 20.2744 112.594 20.7158C114.066 21.5817 114.775 22.8237 114.775 24.5727C114.775 25.3672 114.601 26.0698 114.264 26.6995C113.936 27.3131 113.436 27.8438 112.729 28.2861L112.728 28.2863L68.2241 56.1212C67.7831 56.3833 67.3195 56.5809 66.8313 56.7153C66.3267 56.8542 65.8648 56.9185 65.4421 56.9185Z" fill="url(#paint0_linear_113_1051)" stroke="white" stroke-width="2"/>
<g id="mask">
<mask id="mask0_113_1051" style="mask-type:alpha" maskUnits="userSpaceOnUse" x="2" y="2" width="127" height="102">
<path id="mask_2" d="M15.1087 103.061C11.6483 103.061 8.68703 101.83 6.22489 99.368C3.76275 96.9058 2.52959 93.9425 2.52539 90.4779V14.9779C2.52539 11.5174 3.75856 8.55617 6.22489 6.09403C8.69122 3.63189 11.6525 2.39873 15.1087 2.39453H115.775C119.236 2.39453 122.199 3.6277 124.666 6.09403C127.132 8.56036 128.363 11.5216 128.359 14.9779V90.4779C128.359 93.9383 127.128 96.9017 124.666 99.368C122.203 101.834 119.24 103.065 115.775 103.061H15.1087ZM65.4421 57.9185C65.9664 57.9185 66.5179 57.8388 67.0968 57.6794C67.6756 57.52 68.2251 57.2851 68.7452 56.9747L113.259 29.1341C114.098 28.6098 114.727 27.9555 115.146 27.1711C115.566 26.3868 115.775 25.5206 115.775 24.5727C115.775 22.4754 114.884 20.9025 113.101 19.8539C111.319 18.8053 109.484 18.8577 107.596 20.0112L65.4421 46.4362L23.2879 20.0112C21.4004 18.8577 19.5653 18.8326 17.7827 19.9357C16 21.0388 15.1087 22.5845 15.1087 24.5727C15.1087 25.6213 15.3184 26.5398 15.7379 27.3284C16.1573 28.117 16.7865 28.7189 17.6254 29.1341L62.1389 56.9747C62.6632 57.2893 63.2148 57.5263 63.7936 57.6857C64.3725 57.8451 64.9219 57.9227 65.4421 57.9185Z" fill="white"/>
</mask>
<g mask="url(#mask0_113_1051)">
<g id="shine" opacity="0.6" filter="url(#filter0_f_113_1051)">
<ellipse cx="65.4424" cy="92.728" rx="78.5" ry="14.5" fill="#4ED171"/>
</g>
<g id="shine_2" opacity="0.84" filter="url(#filter1_f_113_1051)">
<ellipse cx="65.4424" cy="101.228" rx="78.5" ry="5" fill="#4ED171"/>
</g>
</g>
</g>
</g>
<defs>
<filter id="filter0_f_113_1051" x="-68.4576" y="22.828" width="267.8" height="139.8" filterUnits="userSpaceOnUse" color-interpolation-filters="sRGB">
<feFlood flood-opacity="0" result="BackgroundImageFix"/>
<feBlend mode="normal" in="SourceGraphic" in2="BackgroundImageFix" result="shape"/>
<feGaussianBlur stdDeviation="27.7" result="effect1_foregroundBlur_113_1051"/>
</filter>
<filter id="filter1_f_113_1051" x="-27.7576" y="81.528" width="186.4" height="39.4" filterUnits="userSpaceOnUse" color-interpolation-filters="sRGB">
<feFlood flood-opacity="0" result="BackgroundImageFix"/>
<feBlend mode="normal" in="SourceGraphic" in2="BackgroundImageFix" result="shape"/>
<feGaussianBlur stdDeviation="7.35" result="effect1_foregroundBlur_113_1051"/>
</filter>
<linearGradient id="paint0_linear_113_1051" x1="65.4421" y1="2.39453" x2="65.4421" y2="103.061" gradientUnits="userSpaceOnUse">
<stop offset="0.423083" stop-color="white"/>
<stop offset="1" stop-color="#BFBFBF"/>
</linearGradient>
</defs>
</svg>
