<svg width="49" height="44" viewBox="0 0 49 44" fill="none" xmlns="http://www.w3.org/2000/svg">
<g id="SearchFit logo">
<path id="Vector" d="M30.74 9.55273L32.3489 6.37573L26.9548 0.440231L22.6592 8.91372L28.045 14.8447L30.74 9.55273Z" fill="#CDCCCC"/>
<path id="Vector_2" d="M20.7636 29.1553H29.159L23.7975 23.1928H15.4062L20.7636 29.1553Z" fill="#004990"/>
<path id="Vector_3" d="M31.8544 23.8495L33.4876 20.668L28.0814 14.737L23.7979 23.2104L29.1797 29.1415L31.8544 23.8495Z" fill="#28F5FE"/>
<path id="Vector_4" d="M23.7979 23.1926C23.9165 22.9585 27.7302 15.4436 28.0651 14.7775H19.6861L15.4189 23.1926H23.7979Z" fill="#00F058"/>
<path id="Vector_5" d="M19.6658 14.7999H28.0651L22.7078 8.81502H14.3125C15.562 10.2055 19.5595 14.6514 19.6658 14.7999Z" fill="#004990"/>
<path id="Vector_6" d="M22.715 8.81512C22.8375 8.58112 26.6553 1.06612 26.982 0.400116H18.603L14.3359 8.81512H22.715Z" fill="white"/>
<path id="Vector_7" d="M44.5034 15.4299L46.1123 12.2529L40.7263 6.32184L36.4307 14.7998L41.8165 20.7354L44.5034 15.4299Z" fill="#CDCCCC"/>
<path id="Vector_8" d="M33.4257 20.7219H41.821L36.4555 14.7593H28.0684L33.4257 20.7219Z" fill="#004990"/>
<path id="Vector_9" d="M45.6067 29.7941L47.2401 26.617L41.8337 20.6859L37.5381 29.155L42.924 35.0904C43.2425 34.4559 44.5287 31.9271 45.6067 29.7941Z" fill="#CDCCCC"/>
<path id="Vector_10" d="M34.5154 35.0995H42.9108L37.5576 29.1369H29.1582L34.5154 35.0995Z" fill="#676767"/>
<path id="Vector_11" d="M36.4559 14.7999L40.7231 6.38501H32.3482L28.0811 14.7999H36.4559Z" fill="white"/>
<path id="Vector_12" d="M32.928 38.254L34.5614 35.0725L29.155 29.1415L24.8594 37.6105L30.2411 43.546L32.928 38.254Z" fill="#CDCCCC"/>
<path id="Vector_13" d="M21.866 43.5236H30.2614L24.9082 37.5655H16.5088L21.866 43.5236Z" fill="#676767"/>
<path id="Vector_14" d="M19.1839 32.3502L20.8173 29.1733L15.4109 23.2198L11.1152 31.6932L16.497 37.6243L19.1839 32.3502Z" fill="#CDCCCC"/>
<path id="Vector_15" d="M8.1345 37.6014H16.534L11.1766 31.6436H2.78125C4.03075 33.0295 8.02425 37.4799 8.1345 37.6014Z" fill="#676767"/>
<path id="Vector_16" d="M18.0812 17.9232L19.7146 14.7462L14.3123 8.81526L10.0166 17.2842L15.4026 23.2198L18.0812 17.9232Z" fill="#CDCCCC"/>
<path id="Vector_17" d="M6.98704 23.2238H15.3823L10.0291 17.2614H1.63379L6.98704 23.2238Z" fill="#676767"/>
<path id="Vector_18" d="M37.5343 29.1504L41.8054 20.731H33.4223L29.1553 29.1504H37.5343Z" fill="white"/>
<path id="Vector_19" d="M24.9005 37.579C25.023 37.345 28.8327 29.8346 29.1675 29.164H20.7885L16.5215 37.579H24.9005Z" fill="white"/>
<path id="Vector_20" d="M11.1632 31.6347C11.2816 31.4008 15.0914 23.8857 15.4262 23.2198H7.05536L2.78418 31.6347H11.1632Z" fill="white"/>
<path id="Vector_21" d="M10.0325 17.2526L14.2996 8.83752H5.9165L1.64941 17.2526H10.0325Z" fill="white"/>
</g>
</svg>
